<!--?xml version="1.0" standalone="no"?-->
              <svg id="sw-js-blob-svg" viewBox="0 0 100 100" xmlns="http://www.w3.org/2000/svg" version="1.1">
                    <defs> 
                        <linearGradient id="sw-gradient" x1="0" x2="1" y1="1" y2="0">
                            <stop id="stop1" stop-color="rgba(55, 192.094, 248, 1)" offset="0%"></stop>
                            <stop id="stop2" stop-color="rgba(21.742, 255, 171.628, 1)" offset="100%"></stop>
                        </linearGradient>
                    </defs>
                <path fill="url(#sw-gradient)" d="M11.6,-19.3C17.8,-16.6,27.4,-19,30.4,-16.6C33.5,-14.2,30,-7.1,26,-2.3C22,2.5,17.4,5,15,8.4C12.6,11.9,12.3,16.4,10.2,20.3C8,24.1,4,27.5,1.3,25.3C-1.5,23.1,-2.9,15.3,-4.4,11.1C-6,6.8,-7.6,6.1,-7.7,4.8C-7.8,3.6,-6.5,1.8,-5.6,0.5C-4.7,-0.8,-4.3,-1.5,-7,-7.6C-9.7,-13.7,-15.4,-25.2,-14.8,-31C-14.1,-36.9,-7.1,-37.1,-2.2,-33.4C2.7,-29.7,5.5,-21.9,11.6,-19.3Z" width="100%" height="100%" transform="translate(50 50)" stroke-width="0" style="transition: all 0.3s ease 0s;" stroke="url(#sw-gradient)"></path>
              </svg>